<svg xmlns="http://www.w3.org/2000/svg" width="20.8" height="20" viewBox="0 0 20.8 20">
  <defs>
    <style>
      .cls-1 {
        fill: #fff;
      }
    </style>
  </defs>
  <path id="Icon_ionic-ios-heart" data-name="Icon ionic-ios-heart" class="cls-1" d="M24.575,10.938h-.05a5.689,5.689,0,0,0-4.75,2.6,5.689,5.689,0,0,0-4.75-2.6h-.05a5.653,5.653,0,0,0-5.6,5.65,12.171,12.171,0,0,0,2.39,6.635,41.884,41.884,0,0,0,8.01,7.715,41.884,41.884,0,0,0,8.01-7.715,12.171,12.171,0,0,0,2.39-6.635A5.653,5.653,0,0,0,24.575,10.938Z" transform="translate(-9.375 -10.938)"/>
</svg>
